<svg version="1.1" id="Layer_1" xmlns="http://www.w3.org/2000/svg" xmlns:xlink="http://www.w3.org/1999/xlink" x="0px" y="0px"
	 width="100%" viewBox="0 0 4501 4501" enable-background="new 0 0 4501 4501" xml:space="preserve">
<path fill="#FFFFFF" opacity="1.000000" stroke="none" 
	d="
M2500.000000,4508.000000 
	C1666.758667,4508.000000 835.517395,4508.000000 4.138025,4508.000000 
	C4.138025,3006.924805 4.138025,1505.849731 4.138025,4.387290 
	C1504.908936,4.387290 3005.817871,4.387290 4507.363281,4.387290 
	C4507.363281,1505.333130 4507.363281,3006.666504 4507.363281,4508.000000 
	C3839.181396,4508.000000 3170.590576,4508.000000 2500.000000,4508.000000 
M2740.295410,2333.979004 
	C2740.879883,2354.423340 2739.040039,2374.950439 2741.445557,2395.687256 
	C2749.504883,2396.905518 2756.688965,2398.125732 2763.909668,2399.062500 
	C2836.118896,2408.430176 2901.044678,2469.416016 2908.440674,2550.589600 
	C2908.844238,2555.018799 2909.901123,2559.388916 2910.543945,2563.143799 
	C2913.099121,2563.989502 2914.341553,2564.758789 2915.585205,2564.760986 
	C2998.239990,2564.905273 3080.894531,2564.996582 3163.549316,2565.058350 
	C3170.207520,2565.063232 3176.865723,2564.840332 3183.523193,2564.686523 
	C3184.175049,2564.671631 3184.879395,2564.510498 3185.452881,2564.212646 
	C3185.991211,2563.932861 3186.388672,2563.381348 3186.847900,2562.949219 
	C3197.279297,2461.050537 3265.218750,2402.576660 3356.323242,2395.229004 
	C3356.378906,2372.215820 3356.344971,2349.014893 3356.350586,2325.815186 
	C3356.356201,2303.150879 3356.351807,2280.486328 3356.351807,2257.822021 
	C3356.351807,2234.490967 3356.571777,2211.157227 3356.289795,2187.829590 
	C3356.010254,2164.714111 3357.617188,2141.521240 3355.165039,2118.619629 
	C3258.779297,2110.641113 3194.836426,2045.221069 3186.667969,1949.986084 
	C3182.950684,1949.589722 3179.084473,1948.820312 3175.217773,1948.817139 
	C3090.559570,1948.749878 3005.901367,1948.741089 2921.243164,1948.857422 
	C2917.506592,1948.862549 2913.771729,1950.161255 2910.074219,1950.850220 
	C2909.481934,1955.163818 2908.864990,1958.438354 2908.603516,1961.741089 
	C2901.841064,2047.151855 2831.343994,2111.798584 2752.121826,2116.753174 
	C2748.399658,2116.986084 2744.739990,2118.219727 2740.295410,2119.144531 
	C2740.295410,2190.090332 2740.295410,2260.039062 2740.295410,2333.979004 
M1360.969116,2524.946045 
	C1367.450562,2528.333496 1373.796509,2532.016357 1380.434692,2535.062012 
	C1442.255127,2563.425781 1506.274170,2571.937988 1573.133423,2556.990723 
	C1637.563599,2542.586670 1692.243164,2511.129150 1735.765869,2461.887451 
	C1799.826416,2389.409424 1827.464233,2304.592285 1810.630005,2208.682861 
	C1794.326294,2115.796387 1744.073975,2044.219482 1662.765869,1995.906982 
	C1599.907593,1958.557129 1531.725098,1944.578491 1459.324463,1957.416504 
	C1385.913940,1970.433716 1323.514526,2004.820312 1276.315430,2062.671387 
	C1202.351807,2153.327393 1182.585571,2254.937500 1223.586670,2365.769287 
	C1249.010376,2434.493408 1295.315796,2486.461914 1360.969116,2524.946045 
M2274.000000,2564.010986 
	C2290.659912,2564.010986 2307.325439,2564.282959 2323.978271,2563.935791 
	C2341.105225,2563.578857 2358.351807,2565.568359 2375.648682,2562.510254 
	C2378.197510,2528.123291 2386.045410,2496.053223 2403.775391,2466.915527 
	C2421.072266,2438.490234 2443.806641,2415.732910 2472.493896,2398.642578 
	C2501.645752,2381.275391 2533.725098,2374.138184 2567.328857,2371.030762 
	C2567.737061,2367.233643 2568.251221,2364.664551 2568.254150,2362.094727 
	C2568.307861,2316.114990 2568.356201,2270.135254 2568.196533,2224.156250 
	C2568.183838,2220.479736 2566.641357,2216.808594 2565.915283,2213.600830 
	C2549.260498,2210.639893 2534.070068,2213.875000 2519.054443,2216.294189 
	C2501.366699,2219.144287 2483.806396,2223.229492 2466.507324,2227.940430 
	C2444.621582,2233.900146 2423.603516,2242.620605 2404.004883,2253.968994 
	C2386.186768,2264.286621 2368.719971,2275.452881 2352.211914,2287.740723 
	C2315.468994,2315.090820 2287.366211,2350.483154 2262.075439,2390.739502 
	C2228.771729,2335.586182 2186.240234,2292.489502 2132.584473,2260.338867 
	C2079.427734,2228.487549 1997.091919,2207.889160 1956.532837,2214.866699 
	C1954.823364,2227.580566 1955.899414,2240.802979 1955.714355,2253.937012 
	C1955.536011,2266.595703 1955.675659,2279.258789 1955.675659,2291.919922 
	C1955.675659,2305.247314 1955.355225,2318.584717 1955.766479,2331.899414 
	C1956.171265,2344.998291 1953.832764,2358.309814 1957.651123,2371.430176 
	C1991.955200,2373.712646 2023.928589,2381.739502 2053.083008,2399.397217 
	C2081.566650,2416.648438 2104.215576,2439.500244 2121.434814,2468.066162 
	C2138.974854,2497.164551 2145.878662,2529.335205 2149.266357,2564.002930 
	C2190.270264,2564.017822 2230.135254,2564.008301 2274.000000,2564.010986 
M642.636719,1942.793945 
	C632.252869,1943.480225 621.598633,1941.092651 611.246155,1944.703735 
	C608.057922,1990.255371 592.532776,2029.461548 560.147644,2061.581787 
	C527.890869,2093.574951 488.464813,2108.553711 442.689697,2111.749512 
	C442.689697,2128.158936 442.689697,2143.365723 442.689697,2158.572510 
	C442.689697,2173.902588 442.327515,2189.243652 442.792358,2204.559570 
	C443.250366,2219.650879 440.660492,2234.937988 444.477692,2249.902344 
	C455.248322,2252.444336 465.092163,2250.011719 474.926086,2248.804199 
	C485.483856,2247.508057 496.066650,2246.134766 506.478241,2244.010010 
	C516.238464,2242.018555 525.907837,2239.370605 535.398499,2236.328857 
	C544.884949,2233.288574 554.260681,2229.770264 563.391113,2225.787354 
	C573.134033,2221.537842 582.720215,2216.839111 592.027588,2211.706787 
	C600.759521,2206.891602 609.265198,2201.580811 617.452087,2195.886719 
	C625.642334,2190.190430 633.553589,2184.029541 641.148010,2177.556885 
	C649.246399,2170.654785 657.133728,2163.444336 664.550903,2155.821289 
	C671.506836,2148.672363 678.045044,2141.055908 684.186096,2133.191650 
	C690.737976,2124.801270 696.968323,2116.107422 702.672974,2107.123047 
	C708.014648,2098.709961 712.772827,2089.888916 717.256836,2080.979980 
	C721.738892,2072.075195 725.946899,2062.989014 729.570557,2053.707520 
	C733.434082,2043.811279 736.270569,2033.518921 739.931335,2023.537476 
	C743.219482,2014.571899 742.224304,2004.132446 749.542480,1993.528564 
	C751.929077,2002.939941 753.660400,2009.712402 755.363525,2016.491943 
	C771.448181,2080.517822 804.738647,2133.948975 854.774719,2176.853516 
	C907.670898,2222.210693 969.404907,2246.005371 1038.650635,2250.808594 
	C1043.686523,2251.158203 1049.391479,2252.653564 1054.850952,2246.479980 
	C1054.850952,2225.239502 1055.024292,2202.655029 1054.802124,2180.074707 
	C1054.581177,2157.622314 1055.813965,2135.116699 1053.937744,2111.952637 
	C1031.172974,2109.288330 1009.528137,2106.329102 989.200562,2097.221436 
	C969.489929,2088.389893 951.772278,2076.781494 936.503967,2061.666504 
	C920.737488,2046.058228 908.716675,2027.796997 899.645081,2007.455078 
	C890.638245,1987.258423 887.887390,1965.668945 885.289978,1942.794922 
	C804.909363,1942.794922 725.688538,1942.794922 642.636719,1942.793945 
M910.443359,2548.798584 
	C911.326904,2553.805908 910.405945,2559.300537 914.059937,2564.105713 
	C958.331421,2564.105713 1002.263611,2564.134766 1046.195312,2563.996826 
	C1047.900635,2563.991455 1049.600952,2562.383545 1051.132690,2561.608887 
	C1048.836182,2385.213135 899.341797,2247.286133 727.882202,2257.287109 
	C638.158569,2262.520508 564.781799,2302.378906 507.277130,2371.441162 
	C457.639771,2431.054688 434.564606,2516.573486 440.603271,2563.194336 
	C442.359894,2563.573730 444.229218,2564.332275 446.097046,2564.328857 
	C488.737518,2564.249268 531.377808,2564.088135 574.018127,2563.919922 
	C574.664856,2563.917236 575.387085,2563.758301 575.935181,2563.436279 
	C576.484985,2563.113037 576.860413,2562.492920 578.360657,2560.866943 
	C578.679199,2558.238770 579.278381,2554.374756 579.598572,2550.487549 
	C582.784180,2511.816895 598.077393,2478.289062 624.611877,2450.452148 
	C674.195923,2398.434814 750.590515,2376.994873 823.468872,2417.964600 
	C873.055420,2445.840088 901.729065,2488.873291 910.443359,2548.798584 
M3686.246582,1995.855713 
	C3676.560303,1990.024658 3667.160889,1983.638916 3657.137939,1978.459473 
	C3616.388916,1957.401978 3573.201904,1945.169556 3527.149170,1944.080688 
	C3523.449219,1943.993164 3519.718018,1945.208008 3516.235840,1945.779297 
	C3514.099854,1996.394165 3514.898926,2066.642578 3517.887939,2083.210938 
	C3562.562500,2085.197510 3601.806152,2101.407959 3633.729980,2133.164795 
	C3666.177490,2165.442871 3681.888428,2205.597900 3684.441162,2251.260498 
	C3688.136230,2251.568848 3690.745850,2251.979492 3693.354980,2251.976318 
	C3764.657959,2251.891113 3835.960693,2251.765381 3907.263672,2251.613281 
	C3907.863525,2251.612061 3908.493164,2251.220703 3909.052734,2250.910400 
	C3909.631348,2250.589355 3910.141846,2250.145264 3911.242920,2249.350098 
	C3911.742432,2219.920654 3920.055420,2192.258057 3935.229004,2166.556152 
	C3950.128418,2141.319092 3970.448486,2121.710938 3995.537842,2106.715332 
	C4021.059326,2091.461182 4049.160156,2084.949219 4079.007812,2082.719727 
	C4079.285645,2078.145996 4079.651367,2074.895996 4079.654785,2071.645752 
	C4079.695557,2032.992065 4079.731201,1994.338135 4079.605713,1955.684814 
	C4079.593506,1951.954102 4078.494385,1948.226929 4077.873779,1944.333008 
	C4050.538818,1942.676147 4025.011230,1947.257690 3999.955322,1954.262451 
	C3914.855225,1978.053711 3851.228760,2029.179688 3808.022705,2106.090576 
	C3804.700195,2112.004883 3802.852539,2119.001221 3796.470215,2124.958984 
	C3771.120117,2072.337158 3736.009521,2029.604858 3686.246582,1995.855713 
M3962.019775,2448.015625 
	C3977.543701,2433.122559 3995.076904,2421.245850 4014.845947,2412.688965 
	C4035.046875,2403.945312 4056.595947,2400.702881 4079.375488,2398.329346 
	C4079.484863,2381.892334 4079.626465,2366.677246 4079.676758,2351.461914 
	C4079.727539,2336.134033 4080.071533,2320.793213 4079.578613,2305.480957 
	C4079.093750,2290.418945 4081.775635,2275.144287 4077.928467,2260.341553 
	C4060.274658,2258.811768 4043.713867,2260.490723 4027.431641,2264.041504 
	C4011.218506,2267.577393 3994.863281,2271.066406 3979.227051,2276.474365 
	C3963.589111,2281.882812 3948.240967,2288.686523 3933.727539,2296.634277 
	C3918.608154,2304.913818 3903.981934,2314.443848 3890.354736,2324.995605 
	C3877.242920,2335.148193 3864.918457,2346.599121 3853.657471,2358.782227 
	C3842.399902,2370.961182 3832.205811,2384.285156 3822.805908,2397.972656 
	C3813.686523,2411.251465 3806.168701,2425.630127 3797.865479,2439.664062 
	C3796.496826,2438.499268 3795.822510,2438.165527 3795.511475,2437.623291 
	C3792.535889,2432.437744 3789.634766,2427.209717 3786.688232,2422.007324 
	C3733.823242,2328.668701 3653.949707,2275.305908 3547.869385,2260.927246 
	C3537.549561,2259.528320 3527.065674,2259.093018 3516.339600,2260.689453 
	C3516.047607,2264.580078 3515.688232,2267.158447 3515.685791,2269.737549 
	C3515.646973,2309.057373 3515.602051,2348.377197 3515.738281,2387.696533 
	C3515.751465,2391.471924 3516.961182,2395.243164 3517.577637,2398.798096 
	C3604.405518,2403.491943 3677.856201,2465.258789 3684.772217,2566.949951 
	C3687.251221,2567.289795 3689.837891,2567.952148 3692.425293,2567.954346 
	C3762.401123,2568.009277 3832.377197,2568.021973 3902.352783,2567.909912 
	C3905.377441,2567.905029 3908.399902,2566.645752 3910.690430,2566.134277 
	C3911.850830,2556.291992 3912.458740,2547.639160 3913.945068,2539.139893 
	C3919.973877,2504.660156 3935.923340,2475.224121 3962.019775,2448.015625 
M2273.419189,1997.558105 
	C2219.616455,2000.223633 2172.621094,1983.545654 2132.239990,1947.966187 
	C2130.347412,1946.298828 2127.989014,1945.159912 2125.378174,1943.471313 
	C2122.505127,1945.960205 2119.880371,1947.954346 2117.578857,1950.269531 
	C2083.791748,1984.256592 2050.045654,2018.284546 2016.310425,2052.323242 
	C2015.862793,2052.774902 2015.507935,2053.462158 2015.417847,2054.084229 
	C2015.329346,2054.696289 2015.633789,2055.364746 2015.765747,2056.008545 
	C2151.856934,2198.891357 2392.872803,2184.623291 2509.238770,2054.337402 
	C2483.857422,2025.108032 2409.342041,1952.071899 2396.492432,1944.075928 
	C2363.019775,1975.374023 2323.395508,1993.838257 2273.419189,1997.558105 
z"/>
<path fill="#037BFF" opacity="1.000000" stroke="none" 
	d="
M2740.295410,2331.983398 
	C2740.295410,2260.039062 2740.295410,2190.090332 2740.295410,2119.144531 
	C2744.739990,2118.219727 2748.399658,2116.986084 2752.121826,2116.753174 
	C2831.343994,2111.798584 2901.841064,2047.151855 2908.603516,1961.741089 
	C2908.864990,1958.438354 2909.481934,1955.163818 2910.074219,1950.850220 
	C2913.771729,1950.161255 2917.506592,1948.862549 2921.243164,1948.857422 
	C3005.901367,1948.741089 3090.559570,1948.749878 3175.217773,1948.817139 
	C3179.084473,1948.820312 3182.950684,1949.589722 3186.667969,1949.986084 
	C3194.836426,2045.221069 3258.779297,2110.641113 3355.165039,2118.619629 
	C3357.617188,2141.521240 3356.010254,2164.714111 3356.289795,2187.829590 
	C3356.571777,2211.157227 3356.351807,2234.490967 3356.351807,2257.822021 
	C3356.351807,2280.486328 3356.356201,2303.150879 3356.350586,2325.815186 
	C3356.344971,2349.014893 3356.378906,2372.215820 3356.323242,2395.229004 
	C3265.218750,2402.576660 3197.279297,2461.050537 3186.848145,2562.949219 
	C3186.388672,2563.381348 3185.991211,2563.932861 3185.452881,2564.212646 
	C3184.879395,2564.510498 3184.175049,2564.671631 3183.523193,2564.686523 
	C3176.865723,2564.840332 3170.207520,2565.063232 3163.549316,2565.058350 
	C3080.894531,2564.996582 2998.239990,2564.905273 2915.585205,2564.760986 
	C2914.341553,2564.758789 2913.099121,2563.989502 2910.543945,2563.143799 
	C2909.901123,2559.388916 2908.844238,2555.018799 2908.440674,2550.589600 
	C2901.044678,2469.416016 2836.118896,2408.430176 2763.909668,2399.062500 
	C2756.688965,2398.125732 2749.504883,2396.905518 2741.445557,2395.687256 
	C2739.040039,2374.950439 2740.879883,2354.423340 2740.295410,2331.983398 
M2946.169922,2335.754150 
	C2948.580078,2338.049805 2951.000977,2340.334473 2953.398926,2342.642578 
	C3002.436035,2389.843506 3033.299072,2446.719727 3044.802490,2513.968506 
	C3045.789795,2519.739258 3047.762939,2525.341064 3050.069092,2533.986328 
	C3063.260498,2410.699951 3155.158447,2281.949951 3327.990479,2257.206787 
	C3276.680664,2249.089600 3231.908691,2235.111572 3191.655762,2208.948730 
	C3150.802246,2182.395264 3117.656494,2148.452393 3092.259766,2106.767090 
	C3068.243652,2067.347900 3051.448730,2013.402466 3050.572021,1974.924683 
	C3048.210693,1985.374634 3046.119629,1993.060425 3044.762939,2000.873901 
	C3032.207520,2073.199463 2997.823975,2133.271973 2942.761230,2181.445068 
	C2899.699219,2219.118896 2849.818115,2242.961914 2793.303711,2252.673096 
	C2789.570557,2253.314697 2785.048828,2253.031738 2783.787842,2259.620117 
	C2813.241943,2264.469727 2841.882080,2272.404785 2869.009766,2284.969238 
	C2896.351074,2297.632568 2921.457275,2313.838379 2946.169922,2335.754150 
z"/>
<path fill="#FF6E02" opacity="1.000000" stroke="none" 
	d="
M1359.660278,2524.279785 
	C1295.315796,2486.461914 1249.010376,2434.493408 1223.586670,2365.769287 
	C1182.585571,2254.937500 1202.351807,2153.327393 1276.315430,2062.671387 
	C1323.514526,2004.820312 1385.913940,1970.433716 1459.324463,1957.416504 
	C1531.725098,1944.578491 1599.907593,1958.557129 1662.765869,1995.906982 
	C1744.073975,2044.219482 1794.326294,2115.796387 1810.630005,2208.682861 
	C1827.464233,2304.592285 1799.826416,2389.409424 1735.765869,2461.887451 
	C1692.243164,2511.129150 1637.563599,2542.586670 1573.133423,2556.990723 
	C1506.274170,2571.937988 1442.255127,2563.425781 1380.434692,2535.062012 
	C1373.796509,2532.016357 1367.450562,2528.333496 1359.660278,2524.279785 
M1665.256714,2205.423096 
	C1652.767090,2171.188477 1631.558472,2143.664795 1601.575439,2122.961670 
	C1572.789673,2103.085449 1540.631714,2092.257080 1505.886108,2093.120605 
	C1471.234253,2093.981689 1439.409180,2105.637695 1411.383789,2126.671387 
	C1358.979126,2166.002197 1331.224976,2234.291504 1348.423584,2298.191406 
	C1373.802124,2392.483154 1477.325806,2450.526855 1570.108643,2411.792725 
	C1648.795410,2378.943359 1687.388184,2293.262451 1672.066406,2229.561035 
	C1670.356079,2222.449951 1668.375366,2215.403809 1665.256714,2205.423096 
z"/>
<path fill="#FF02E7" opacity="1.000000" stroke="none" 
	d="
M2272.000000,2564.010986 
	C2230.135254,2564.008301 2190.270264,2564.017822 2149.266357,2564.002930 
	C2145.878662,2529.335205 2138.974854,2497.164551 2121.434814,2468.066162 
	C2104.215576,2439.500244 2081.566650,2416.648438 2053.083008,2399.397217 
	C2023.928589,2381.739502 1991.955200,2373.712646 1957.651123,2371.430176 
	C1953.832764,2358.309814 1956.171265,2344.998291 1955.766479,2331.899414 
	C1955.355225,2318.584717 1955.675659,2305.247314 1955.675659,2291.919922 
	C1955.675659,2279.258789 1955.536011,2266.595703 1955.714355,2253.937012 
	C1955.899414,2240.802979 1954.823364,2227.580566 1956.532837,2214.866699 
	C1997.091919,2207.889160 2079.427734,2228.487549 2132.584473,2260.338867 
	C2186.240234,2292.489502 2228.771729,2335.586182 2262.075439,2390.739502 
	C2287.366211,2350.483154 2315.468994,2315.090820 2352.211914,2287.740723 
	C2368.719971,2275.452881 2386.186768,2264.286621 2404.004883,2253.968994 
	C2423.603516,2242.620605 2444.621582,2233.900146 2466.507324,2227.940430 
	C2483.806396,2223.229492 2501.366699,2219.144287 2519.054443,2216.294189 
	C2534.070068,2213.875000 2549.260498,2210.639893 2565.915283,2213.600830 
	C2566.641357,2216.808594 2568.183838,2220.479736 2568.196533,2224.156250 
	C2568.356201,2270.135254 2568.307861,2316.114990 2568.254150,2362.094727 
	C2568.251221,2364.664551 2567.737061,2367.233643 2567.328857,2371.030762 
	C2533.725098,2374.138184 2501.645752,2381.275391 2472.493896,2398.642578 
	C2443.806641,2415.732910 2421.072266,2438.490234 2403.775391,2466.915527 
	C2386.045410,2496.053223 2378.197510,2528.123291 2375.648682,2562.510254 
	C2358.351807,2565.568359 2341.105225,2563.578857 2323.978271,2563.935791 
	C2307.325439,2564.282959 2290.659912,2564.010986 2272.000000,2564.010986 
z"/>
<path fill="#19EA03" opacity="1.000000" stroke="none" 
	d="
M644.552246,1942.794434 
	C725.688538,1942.794922 804.909363,1942.794922 885.289978,1942.794922 
	C887.887390,1965.668945 890.638245,1987.258423 899.645081,2007.455078 
	C908.716675,2027.796997 920.737488,2046.058228 936.503967,2061.666504 
	C951.772278,2076.781494 969.489929,2088.389893 989.200562,2097.221436 
	C1009.528137,2106.329102 1031.172974,2109.288330 1053.937744,2111.952637 
	C1055.813965,2135.116699 1054.581177,2157.622314 1054.802124,2180.074707 
	C1055.024292,2202.655029 1054.850952,2225.239502 1054.850952,2246.479980 
	C1049.391479,2252.653564 1043.686523,2251.158203 1038.650635,2250.808594 
	C969.404907,2246.005371 907.670898,2222.210693 854.774719,2176.853516 
	C804.738647,2133.948975 771.448181,2080.517822 755.363525,2016.491943 
	C753.660400,2009.712402 751.929077,2002.939941 749.542480,1993.528564 
	C742.224304,2004.132446 743.219482,2014.571899 739.931335,2023.537476 
	C736.270569,2033.518921 733.434082,2043.811279 729.570557,2053.707520 
	C725.946899,2062.989014 721.738892,2072.075195 717.256836,2080.979980 
	C712.772827,2089.888916 708.014648,2098.709961 702.672974,2107.123047 
	C696.968323,2116.107422 690.737976,2124.801270 684.186096,2133.191650 
	C678.045044,2141.055908 671.506836,2148.672363 664.550903,2155.821289 
	C657.133728,2163.444336 649.246399,2170.654785 641.148010,2177.556885 
	C633.553589,2184.029541 625.642334,2190.190430 617.452087,2195.886719 
	C609.265198,2201.580811 600.759521,2206.891602 592.027588,2211.706787 
	C582.720215,2216.839111 573.134033,2221.537842 563.391113,2225.787354 
	C554.260681,2229.770264 544.884949,2233.288574 535.398499,2236.328857 
	C525.907837,2239.370605 516.238464,2242.018555 506.478241,2244.010010 
	C496.066650,2246.134766 485.483856,2247.508057 474.926086,2248.804199 
	C465.092163,2250.011719 455.248322,2252.444336 444.477692,2249.902344 
	C440.660492,2234.937988 443.250366,2219.650879 442.792358,2204.559570 
	C442.327515,2189.243652 442.689697,2173.902588 442.689697,2158.572510 
	C442.689697,2143.365723 442.689697,2128.158936 442.689697,2111.749512 
	C488.464813,2108.553711 527.890869,2093.574951 560.147644,2061.581787 
	C592.532776,2029.461548 608.057922,1990.255371 611.246155,1944.703735 
	C621.598633,1941.092651 632.252869,1943.480225 644.552246,1942.794434 
z"/>
<path fill="#19EA03" opacity="1.000000" stroke="none" 
	d="
M910.137573,2547.080566 
	C901.729065,2488.873291 873.055420,2445.840088 823.468872,2417.964600 
	C750.590515,2376.994873 674.195923,2398.434814 624.611877,2450.452148 
	C598.077393,2478.289062 582.784180,2511.816895 579.598572,2550.487549 
	C579.278381,2554.374756 578.679199,2558.238770 578.360657,2560.866943 
	C576.860413,2562.492920 576.484985,2563.113037 575.935181,2563.436279 
	C575.387085,2563.758301 574.664856,2563.917236 574.018127,2563.919922 
	C531.377808,2564.088135 488.737518,2564.249268 446.097046,2564.328857 
	C444.229218,2564.332275 442.359894,2563.573730 440.603271,2563.194336 
	C434.564606,2516.573486 457.639771,2431.054688 507.277130,2371.441162 
	C564.781799,2302.378906 638.158569,2262.520508 727.882202,2257.287109 
	C899.341797,2247.286133 1048.836182,2385.213135 1051.132690,2561.608887 
	C1049.600952,2562.383545 1047.900635,2563.991455 1046.195312,2563.996826 
	C1002.263611,2564.134766 958.331421,2564.105713 914.059937,2564.105713 
	C910.405945,2559.300537 911.326904,2553.805908 910.137573,2547.080566 
z"/>
<path fill="#FF0202" opacity="1.000000" stroke="none" 
	d="
M3687.471191,1996.607422 
	C3736.009521,2029.604858 3771.120117,2072.337158 3796.470215,2124.958984 
	C3802.852539,2119.001221 3804.700195,2112.004883 3808.022705,2106.090576 
	C3851.228760,2029.179688 3914.855225,1978.053711 3999.955322,1954.262451 
	C4025.011230,1947.257690 4050.538818,1942.676147 4077.873779,1944.333008 
	C4078.494385,1948.226929 4079.593506,1951.954102 4079.605713,1955.684814 
	C4079.731201,1994.338135 4079.695557,2032.992065 4079.654785,2071.645752 
	C4079.651367,2074.895996 4079.285645,2078.145996 4079.007812,2082.719727 
	C4049.160156,2084.949219 4021.059326,2091.461182 3995.537842,2106.715332 
	C3970.448486,2121.710938 3950.128418,2141.319092 3935.229004,2166.556152 
	C3920.055420,2192.258057 3911.742432,2219.920654 3911.242920,2249.350098 
	C3910.141846,2250.145264 3909.631348,2250.589355 3909.052734,2250.910400 
	C3908.493164,2251.220703 3907.863525,2251.612061 3907.263672,2251.613281 
	C3835.960693,2251.765381 3764.657959,2251.891113 3693.354980,2251.976318 
	C3690.745850,2251.979492 3688.136230,2251.568848 3684.441162,2251.260498 
	C3681.888428,2205.597900 3666.177490,2165.442871 3633.729980,2133.164795 
	C3601.806152,2101.407959 3562.562500,2085.197510 3517.887939,2083.210938 
	C3514.898926,2066.642578 3514.099854,1996.394165 3516.235840,1945.779297 
	C3519.718018,1945.208008 3523.449219,1943.993164 3527.149170,1944.080688 
	C3573.201904,1945.169556 3616.388916,1957.401978 3657.137939,1978.459473 
	C3667.160889,1983.638916 3676.560303,1990.024658 3687.471191,1996.607422 
z"/>
<path fill="#FF0202" opacity="1.000000" stroke="none" 
	d="
M3961.011719,2449.023926 
	C3935.923340,2475.224121 3919.973877,2504.660156 3913.945068,2539.139893 
	C3912.458740,2547.639160 3911.850830,2556.291992 3910.690430,2566.134277 
	C3908.399902,2566.645752 3905.377441,2567.905029 3902.352783,2567.909912 
	C3832.377197,2568.021973 3762.401123,2568.009277 3692.425293,2567.954346 
	C3689.837891,2567.952148 3687.251221,2567.289795 3684.772217,2566.949951 
	C3677.856201,2465.258789 3604.405518,2403.491943 3517.577637,2398.798096 
	C3516.961182,2395.243164 3515.751465,2391.471924 3515.738281,2387.696533 
	C3515.602051,2348.377197 3515.646973,2309.057373 3515.685791,2269.737549 
	C3515.688232,2267.158447 3516.047607,2264.580078 3516.339600,2260.689453 
	C3527.065674,2259.093018 3537.549561,2259.528320 3547.869385,2260.927246 
	C3653.949707,2275.305908 3733.823242,2328.668701 3786.688232,2422.007324 
	C3789.634766,2427.209717 3792.535889,2432.437744 3795.511475,2437.623291 
	C3795.822510,2438.165527 3796.496826,2438.499268 3797.865479,2439.664062 
	C3806.168701,2425.630127 3813.686523,2411.251465 3822.805908,2397.972656 
	C3832.205811,2384.285156 3842.399902,2370.961182 3853.657471,2358.782227 
	C3864.918457,2346.599121 3877.242920,2335.148193 3890.354736,2324.995605 
	C3903.981934,2314.443848 3918.608154,2304.913818 3933.727539,2296.634277 
	C3948.240967,2288.686523 3963.589111,2281.882812 3979.227051,2276.474365 
	C3994.863281,2271.066406 4011.218506,2267.577393 4027.431641,2264.041504 
	C4043.713867,2260.490723 4060.274658,2258.811768 4077.928467,2260.341553 
	C4081.775635,2275.144287 4079.093750,2290.418945 4079.578613,2305.480957 
	C4080.071533,2320.793213 4079.727539,2336.134033 4079.676758,2351.461914 
	C4079.626465,2366.677246 4079.484863,2381.892334 4079.375488,2398.329346 
	C4056.595947,2400.702881 4035.046875,2403.945312 4014.845947,2412.688965 
	C3995.076904,2421.245850 3977.543701,2433.122559 3961.011719,2449.023926 
z"/>
<path fill="#FF02E7" opacity="1.000000" stroke="none" 
	d="
M2275.302002,1997.451416 
	C2323.395508,1993.838257 2363.019775,1975.374023 2396.492432,1944.075928 
	C2409.342041,1952.071899 2483.857422,2025.108032 2509.238770,2054.337402 
	C2392.872803,2184.623291 2151.856934,2198.891357 2015.765747,2056.008545 
	C2015.633789,2055.364746 2015.329346,2054.696289 2015.417847,2054.084229 
	C2015.507935,2053.462158 2015.862793,2052.774902 2016.310425,2052.323242 
	C2050.045654,2018.284546 2083.791748,1984.256592 2117.578857,1950.269531 
	C2119.880371,1947.954346 2122.505127,1945.960205 2125.378174,1943.471313 
	C2127.989014,1945.159912 2130.347412,1946.298828 2132.239990,1947.966187 
	C2172.621094,1983.545654 2219.616455,2000.223633 2275.302002,1997.451416 
z"/>
<path fill="#FCFDFF" opacity="1.000000" stroke="none" 
	d="
M2945.086914,2334.830811 
	C2921.457275,2313.838379 2896.351074,2297.632568 2869.009766,2284.969238 
	C2841.882080,2272.404785 2813.241943,2264.469727 2783.787842,2259.620117 
	C2785.048828,2253.031738 2789.570557,2253.314697 2793.303711,2252.673096 
	C2849.818115,2242.961914 2899.699219,2219.118896 2942.761230,2181.445068 
	C2997.823975,2133.271973 3032.207520,2073.199463 3044.762939,2000.873901 
	C3046.119629,1993.060425 3048.210693,1985.374634 3050.572021,1974.924683 
	C3051.448730,2013.402466 3068.243652,2067.347900 3092.259766,2106.767090 
	C3117.656494,2148.452393 3150.802246,2182.395264 3191.655762,2208.948730 
	C3231.908691,2235.111572 3276.680664,2249.089600 3327.990479,2257.206787 
	C3155.158447,2281.949951 3063.260498,2410.699951 3050.069092,2533.986328 
	C3047.762939,2525.341064 3045.789795,2519.739258 3044.802490,2513.968506 
	C3033.299072,2446.719727 3002.436035,2389.843506 2953.398926,2342.642578 
	C2951.000977,2340.334473 2948.580078,2338.049805 2945.086914,2334.830811 
z"/>
<path fill="#FFFFFF" opacity="1.000000" stroke="none" 
	d="
M1665.888428,2206.875488 
	C1668.375366,2215.403809 1670.356079,2222.449951 1672.066406,2229.561035 
	C1687.388184,2293.262451 1648.795410,2378.943359 1570.108643,2411.792725 
	C1477.325806,2450.526855 1373.802124,2392.483154 1348.423584,2298.191406 
	C1331.224976,2234.291504 1358.979126,2166.002197 1411.383789,2126.671387 
	C1439.409180,2105.637695 1471.234253,2093.981689 1505.886108,2093.120605 
	C1540.631714,2092.257080 1572.789673,2103.085449 1601.575439,2122.961670 
	C1631.558472,2143.664795 1652.767090,2171.188477 1665.888428,2206.875488 
z"/>
</svg>